<?xml version="1.0" encoding="UTF-8"?>
<svg width="130px" height="105px" viewBox="0 0 321 321" version="1.1" xmlns="http://www.w3.org/2000/svg" xmlns:xlink="http://www.w3.org/1999/xlink">
    <!-- Generator: sketchtool 53 (72520) - https://sketchapp.com -->
    <title>063395DD-D438-4AF4-858E-196022CD2FBC</title>
    <desc>Created with sketchtool.</desc>
    <g id="•-Brand" stroke="none" stroke-width="1" fill="none" fill-rule="evenodd">
        <g id="Risk-Reveal-Cover" transform="translate(-556.000000, -352.000000)">
            <g id="a/logo/product-V01-circle" transform="translate(556.000000, 352.000000)">
                <!--<circle id="Oval" fill="#FFFFFF" fill-rule="nonzero" cx="160.290909" cy="160.290909" r="160.290909"></circle>-->
                <g id="Group" stroke-width="1" fill-rule="evenodd" transform="translate(52.727273, 80.145455)">
                    <path d="M27.2998449,30.5158272 L18.9498766,30.5158272 C17.0831449,30.5158272 15.5746166,29.9584661 14.4242463,28.8437271 C13.2738761,27.7289881 12.8411837,26.4052554 13.1261563,24.8724893 L16.7012485,5.64333791 C16.986221,4.1105718 17.9111313,2.78683911 19.4760071,1.67210012 C21.0408829,0.557361133 22.7566608,0 24.6233925,0 L61.0615982,6.19828795e-14 C78.3963646,6.19828795e-14 91.3988395,4.28519099 100.069413,12.8557015 C108.739986,21.4262121 111.539219,33.9729424 108.467195,50.496269 C106.48617,61.1514984 102.78257,70.0307229 97.3562844,77.1342091 C91.9299985,84.2376954 85.0422385,89.796862 76.6927976,93.811876 C75.5135401,94.4295704 74.4669515,95.3560982 73.5530003,96.5914871 C72.6390492,97.826876 72.0672402,99.0622464 71.8375561,100.297635 C71.6940036,101.069753 71.8115023,102.073492 72.1900556,103.308881 L91.8726058,150.793904 C92.3457975,152.33814 92.4962596,153.573511 92.3239966,154.500053 C92.008181,156.198712 91.1795763,157.588504 89.8381576,158.669469 C88.4967389,159.750435 86.7000294,160.290909 84.7232578,160.290909 L61.888907,160.290909 C60.9765509,160.290909 59.9498762,159.943461 58.9386283,159.248555 C57.9273805,158.553649 57.2994375,157.637361 56.9581015,157.019666 L36.4791479,104.003783 C36.3185817,103.231665 35.8807254,102.026229 34.7790926,101.408534 C33.6774597,100.79084 32.6321289,100.31812 31.7197728,100.31812 L21.9357647,100.306597 L21.9336224,100.31812 L5.92253496,100.31812 C4.0692937,100.31812 2.56506395,99.8003028 1.40980059,98.764653 C0.254537232,97.7290031 -0.190710693,96.4991873 0.0740434577,95.0751688 L3.39548801,77.2102981 C3.66024216,75.7862796 4.56278585,74.5564638 6.10314615,73.520814 C7.64350646,72.4851641 9.34028179,71.9673469 11.1935231,71.9673469 L48.3656613,71.9673469 C55.3603916,71.9673469 61.4146041,70.6870714 66.6409798,67.5213873 C71.8673555,64.3557032 75.198256,58.9123525 76.6337813,51.1911718 C78.0405961,43.6244148 76.7502375,38.29688 72.762667,35.2084078 C68.7750965,32.1199355 63.2079999,30.5757225 56.0612102,30.5757225 L27.2887092,30.5757225 L27.2998449,30.5158272 Z" id="Path" fill="#0700CF"></path>
                    <path d="M189.936519,129.775082 L198.286487,129.775082 C200.153219,129.775082 201.661747,130.332443 202.812117,131.447182 C203.962488,132.561921 204.39518,133.885654 204.110207,135.41842 L200.535115,154.647571 C200.250143,156.180337 199.325232,157.50407 197.760357,158.618809 C196.195481,159.733548 194.479703,160.290909 192.612971,160.290909 L156.174765,160.290909 C138.839999,160.290909 125.837524,156.005718 117.166951,147.435208 C108.496377,138.864697 105.697145,126.317967 108.769169,109.79464 C110.750194,99.1394107 114.453793,90.2601862 119.880079,83.1566999 C125.306365,76.0532137 132.194125,70.494047 140.543566,66.4790331 C141.722824,65.8613387 142.769412,64.9348109 143.683363,63.699422 C144.597314,62.4640331 145.169123,61.2286627 145.398808,59.9932738 C145.54236,59.2211557 145.424861,58.2174173 145.046308,56.9820284 L125.363758,9.49700473 C124.890566,7.9527686 124.740104,6.71739822 124.912367,5.79085654 C125.228183,4.0921968 126.056787,2.70240512 127.398206,1.62143983 C128.739625,0.540474539 130.536334,0 132.513106,0 L155.347457,0 C156.259813,0 157.286487,0.347447918 158.297735,1.04235418 C159.308983,1.73726044 159.936926,2.65354859 160.278262,3.27124304 L180.757216,56.2871256 C180.917782,57.0592437 181.355638,58.2646803 182.457271,58.8823748 C183.558904,59.5000692 184.604235,59.9727891 185.516591,59.9727891 L195.300599,59.9843117 L195.302741,59.9727891 L211.313829,59.9727891 C213.16707,59.9727891 214.6713,60.4906063 215.826563,61.5262561 C216.981826,62.561906 217.427074,63.7917217 217.16232,65.2157403 L213.840876,83.080611 C213.576121,84.5046295 212.673578,85.7344453 211.133217,86.7700951 C209.592857,87.805745 207.896082,88.3235622 206.042841,88.3235622 L168.870702,88.3235622 C161.875972,88.3235622 155.82176,89.6038377 150.595384,92.7695218 C145.369008,95.9352059 142.038108,101.378557 140.602582,109.099737 C139.195768,116.666494 140.486126,121.994029 144.473697,125.082501 C148.461267,128.170974 154.028364,129.715187 161.175153,129.715187 L189.947654,129.715187 L189.936519,129.775082 Z" id="Path-Copy" fill="#03DAC4"></path>
                </g>
            </g>
        </g>
    </g>
</svg>
